<?xml version="1.0" encoding="utf-8"?>
<!-- Generator: Adobe Illustrator 24.1.2, SVG Export Plug-In . SVG Version: 6.00 Build 0)  -->
<svg version="1.1" id="Capa_1" xmlns="http://www.w3.org/2000/svg" xmlns:xlink="http://www.w3.org/1999/xlink" x="0px" y="0px"
	 viewBox="0 0 584.3 584.3" style="enable-background:new 0 0 584.3 584.3;" xml:space="preserve">
<style type="text/css">
	.st0{fill:#FFFFFF;}
</style>
<g>
	<g>
		<path class="st0" d="M45.9,310.8h106.3c27.2-52.2,81.7-87.9,144.5-87.9c42.9,0,83.5,16.6,114.1,46.6c0.8,0.8,1.5,1.5,2.3,2.3
			c5.9-10.7,9.3-23,9.3-36.2c0-41.5-33.6-75.1-75.1-75.1c-18.4,0-35.2,6.6-48.2,17.6c-1.4-70.6-59-127.4-129.9-127.4
			c-71.8,0-130,58.2-130,130c0,13.3,2,26.1,5.7,38.1C20,219.5,0,239.8,0,264.9C0,290.2,20.6,310.8,45.9,310.8z"/>
		<path class="st0" d="M499,362.9c-20.9,0-40,7.5-54.8,20c-0.7-38-15.8-72.4-40.1-98.2c-26.9-28.6-65.1-46.5-107.4-46.5
			c-54.1,0-101.4,29.1-127.1,72.6c-13,22-20.5,47.6-20.5,75c0,15.1,2.3,29.6,6.5,43.3c-28.3,0.6-51,23.7-51,52.1
			c0,28.8,23.4,52.2,52.2,52.2h140h6.4H499c47.1,0,85.2-38.2,85.2-85.2C584.3,401.1,546.1,362.9,499,362.9z"/>
	</g>
</g>
</svg>
