<?xml version="1.0" encoding="iso-8859-1"?>
<!-- Generator: Adobe Illustrator 16.0.0, SVG Export Plug-In . SVG Version: 6.00 Build 0)  -->
<!DOCTYPE svg PUBLIC "-//W3C//DTD SVG 1.1//EN" "http://www.w3.org/Graphics/SVG/1.1/DTD/svg11.dtd">
<svg version="1.1" id="Capa_1" xmlns="http://www.w3.org/2000/svg" xmlns:xlink="http://www.w3.org/1999/xlink" x="0px" y="0px"
	 width="584.273px" height="584.273px" viewBox="0 0 584.273 584.273" style="enable-background:new 0 0 584.273 584.273;"
	 xml:space="preserve">
<g>
	<g>
		<path d="M45.931,310.784h106.286c27.185-52.152,81.739-87.865,144.508-87.865c42.939,0,83.453,16.567,114.08,46.65
			c0.771,0.756,1.51,1.539,2.262,2.307c5.906-10.725,9.275-23.042,9.275-36.151c0-41.454-33.605-75.059-75.059-75.059
			c-18.369,0-35.191,6.609-48.238,17.567C297.656,107.667,240.057,50.88,169.16,50.88c-71.77,0-129.952,58.18-129.952,129.952
			c0,13.274,2.001,26.078,5.701,38.14C20.019,219.52,0,239.829,0,264.85C0,290.218,20.563,310.784,45.931,310.784z"/>
		<path d="M499.025,362.905c-20.863,0-39.967,7.506-54.783,19.951c-0.746-37.98-15.848-72.428-40.08-98.181
			c-26.904-28.589-65.068-46.457-107.431-46.457c-54.113,0-101.396,29.14-127.088,72.565
			c-13.008,21.988-20.499,47.623-20.499,75.021c0,15.076,2.273,29.617,6.472,43.318c-28.269,0.623-51.004,23.688-51.004,52.105
			c0,28.809,23.354,52.164,52.164,52.164h139.955h6.362h195.934c47.078,0,85.246-38.166,85.246-85.246
			C584.27,401.069,546.104,362.905,499.025,362.905z"/>
	</g>
</g>
<g>
</g>
<g>
</g>
<g>
</g>
<g>
</g>
<g>
</g>
<g>
</g>
<g>
</g>
<g>
</g>
<g>
</g>
<g>
</g>
<g>
</g>
<g>
</g>
<g>
</g>
<g>
</g>
<g>
</g>
</svg>
